<?xml version="1.0" encoding="UTF-8" standalone="no" ?>
<!DOCTYPE svg PUBLIC "-//W3C//DTD SVG 1.1//EN" "http://www.w3.org/Graphics/SVG/1.1/DTD/svg11.dtd">
<svg xmlns="http://www.w3.org/2000/svg" xmlns:xlink="http://www.w3.org/1999/xlink" version="1.1" width="640" height="480" viewBox="0 0 640 480" xml:space="preserve">
<desc>Created with Fabric.js 3.6.6</desc>
<defs>
</defs>
<g transform="matrix(1.47 0 0 1.46 319.46 247.26)"  >
<g style=""   >
		<g transform="matrix(1 0 0 1 -6.12 -0.11)"  >
<path style="stroke: none; stroke-width: 1; stroke-dasharray: none; stroke-linecap: butt; stroke-dashoffset: 0; stroke-linejoin: miter; stroke-miterlimit: 4; fill: rgb(244,102,88); fill-rule: nonzero; opacity: 1;"  transform=" translate(-211.87, -128.89)" d="m 379.5 46.1 c -34 -36 -68.5 -33.2 -68.5 -33.2 h -79.6 h -39 h -79.7 c 0 0 -34.5 -2.8 -68.5 33.2 c -34 36 -31.6 100.3 -18 133.3 c 13.7 33 44 68.7 115 65.3 h 31.8 h 77.7 h 31.8 c 71 3.4 101.4 -32.3 115 -65.3 c 13.7 -33 16 -97.3 -18 -133.3 z" stroke-linecap="round" />
</g>
		<g transform="matrix(1 0 0 1 -6.12 -0.05)"  >
<path style="stroke: none; stroke-width: 1; stroke-dasharray: none; stroke-linecap: butt; stroke-dashoffset: 0; stroke-linejoin: miter; stroke-miterlimit: 4; fill: rgb(218,220,221); fill-rule: nonzero; opacity: 1;"  transform=" translate(-211.88, -128.95)" d="m 291.6 246 q 0 0 0 0 c -3 0 -6 -0.1 -9.1 -0.3 h -141.3 c -3 0.2 -6.1 0.3 -9.1 0.3 c -52.7 0 -88.6 -22.3 -106.8 -66.2 c -7.4 -18 -10.8 -42.7 -8.9 -66 c 1.5 -19.8 7.5 -47.7 27.1 -68.4 c 29.4 -31.1 59 -33.5 67.4 -33.5 c 1.2 0 1.9 0 1.9 0 h 198.2 c 0 0 0.7 0 1.9 0 c 8.3 0 38 2.4 67.4 33.5 c 19.6 20.7 25.5 48.6 27.1 68.4 c 1.8 23.3 -1.5 48 -8.9 66 c -18.2 43.9 -54.2 66.2 -106.9 66.2 z m -118.6 -2.3 h 109.5 q 4.7 0.3 9.1 0.3 q 0 0 0 0 c 51.8 0 87.2 -21.9 105 -65 c 7.3 -17.7 10.6 -42 8.8 -65 c -1.5 -19.5 -7.4 -46.9 -26.6 -67.2 c -28.8 -30.6 -57.8 -32.9 -65.9 -32.9 c -1.2 0 -1.8 0 -1.8 0 h -198.4 c -0.1 0 -0.7 0 -1.8 0 c -8.2 0 -37.1 2.3 -65.9 32.9 c -19.2 20.3 -25.1 47.7 -26.6 67.2 c -1.9 23 1.4 47.3 8.8 65 c 17.8 43.1 53.1 65 104.9 65 c 3 0 6 -0.1 9.1 -0.3 z" stroke-linecap="round" />
</g>
		<g transform="matrix(1 0 0 1 -6.12 -0.07)"  >
<path style="stroke: none; stroke-width: 1; stroke-dasharray: none; stroke-linecap: butt; stroke-dashoffset: 0; stroke-linejoin: miter; stroke-miterlimit: 4; fill: rgb(244,102,88); fill-rule: nonzero; opacity: 1;"  transform=" translate(-211.88, -128.92)" d="m 368.5 51.6 c -31.8 -33.7 -64 -31 -64 -31 h -74.4 h -36.4 h -74.4 c 0 0 -32.2 -2.7 -64 31 c -31.7 33.6 -29.6 93.7 -16.8 124.5 c 12.8 30.8 41.1 64.1 107.4 61 h 29.7 h 72.6 h 29.7 c 66.3 3.1 94.6 -30.2 107.4 -61 c 12.7 -30.8 14.9 -90.9 -16.8 -124.5 z" stroke-linecap="round" />
</g>
		<g transform="matrix(1 0 0 1 -6.13 -0.1)"  >
<path style="stroke: none; stroke-width: 1; stroke-dasharray: none; stroke-linecap: butt; stroke-dashoffset: 0; stroke-linejoin: miter; stroke-miterlimit: 4; fill: rgb(218,220,221); fill-rule: nonzero; opacity: 1;"  transform=" translate(-211.87, -128.9)" d="m 286.3 238.3 c -2.7 0 -5.6 -0.1 -8.5 -0.2 h -131.9 c -2.8 0.1 -5.7 0.2 -8.5 0.2 c -49.2 0 -82.8 -20.8 -99.8 -61.8 c -7 -16.9 -10.1 -39.9 -8.4 -61.7 c 1.5 -18.5 7.1 -44.5 25.4 -63.9 c 27.4 -29.1 55.1 -31.4 63 -31.4 c 1.1 0 1.7 0.1 1.8 0.1 h 185.1 c 0 0 0.6 -0.1 1.7 -0.1 c 7.8 0 35.5 2.3 63 31.4 c 18.3 19.4 23.9 45.4 25.3 63.9 c 1.8 21.8 -1.4 44.8 -8.3 61.7 c -17 41 -50.6 61.8 -99.9 61.8 z m -110.7 -2.2 h 102.3 q 4.3 0.2 8.4 0.2 c 48.4 0 81.4 -20.4 98 -60.6 c 6.9 -16.5 10 -39.3 8.3 -60.8 c -1.5 -18.1 -7 -43.7 -24.9 -62.7 c -26.9 -28.5 -53.9 -30.7 -61.5 -30.7 c -1.1 0 -1.6 0.1 -1.6 0.1 h -185.3 c -0.1 0 -0.7 -0.1 -1.7 -0.1 c -7.7 0 -34.7 2.2 -61.6 30.7 c -17.9 19 -23.4 44.6 -24.8 62.7 c -1.7 21.5 1.4 44.3 8.2 60.8 c 16.7 40.2 49.6 60.6 98 60.6 c 2.8 0 5.6 -0.1 8.4 -0.2 z" stroke-linecap="round" />
</g>
		<g transform="matrix(1 0 0 1 -6.14 -0.09)"  >
<path style="stroke: none; stroke-width: 1; stroke-dasharray: none; stroke-linecap: butt; stroke-dashoffset: 0; stroke-linejoin: miter; stroke-miterlimit: 4; fill: rgb(244,102,88); fill-rule: nonzero; opacity: 1;"  transform=" translate(-211.87, -128.92)" d="m 359.1 59.8 c -29.8 -30.1 -60.1 -27.7 -60.1 -27.7 h -70 h -34.2 h -70 c 0 0 -30.3 -2.4 -60.2 27.7 c -29.8 30 -27.8 83.7 -15.8 111.3 c 12 27.5 38.7 57.3 101 54.5 h 28 h 68.2 h 27.9 c 62.4 2.8 89 -27 101 -54.5 c 12 -27.6 14.1 -81.3 -15.8 -111.3 z" stroke-linecap="round" />
</g>
		<g transform="matrix(1 0 0 1 -6.15 -0.1)"  >
<path style="stroke: none; stroke-width: 1; stroke-dasharray: none; stroke-linecap: butt; stroke-dashoffset: 0; stroke-linejoin: miter; stroke-miterlimit: 4; fill: rgb(218,220,221); fill-rule: nonzero; opacity: 1;"  transform=" translate(-211.85, -128.9)" d="m 281.9 226.8 q 0 0 0 0 c -2.6 0 -5.3 -0.1 -8 -0.2 h -124.1 c -2.6 0.1 -5.3 0.2 -8 0.2 c -46.3 0 -77.9 -18.6 -93.9 -55.3 c -11.8 -27 -14.8 -81.4 16 -112.4 c 25.9 -26 51.9 -28.1 59.3 -28.1 c 1.1 0 1.7 0.1 1.7 0.1 h 174.1 c 0 0 0.5 -0.1 1.6 -0.1 c 7.3 0 33.4 2.1 59.2 28.1 c 17.3 17.3 22.6 40.7 23.9 57.2 c 1.7 19.5 -1.3 40.1 -7.8 55.2 c -16 36.7 -47.6 55.3 -94 55.3 z m -104.1 -2.2 h 96.1 q 4.1 0.2 8 0.2 q 0 0 0 0 c 45.5 0 76.5 -18.2 92.1 -54.1 c 6.5 -14.8 9.3 -35.1 7.7 -54.3 c -1.3 -16.1 -6.5 -39 -23.3 -55.9 c -25.3 -25.5 -50.7 -27.5 -57.8 -27.5 c -1 0 -1.5 0.1 -1.6 0.1 h -174.2 c -0.1 0 -0.6 -0.1 -1.6 -0.1 c -7.2 0 -32.6 2 -57.9 27.5 c -16.8 16.9 -21.9 39.8 -23.3 55.9 c -1.6 19.2 1.3 39.5 7.7 54.3 c 15.7 35.9 46.7 54.1 92.1 54.1 c 2.6 0 5.3 -0.1 8 -0.2 z" stroke-linecap="round" />
</g>
		<g transform="matrix(1 0 0 1 -6.11 -0.09)"  >
<path style="stroke: none; stroke-width: 1; stroke-dasharray: none; stroke-linecap: butt; stroke-dashoffset: 0; stroke-linejoin: miter; stroke-miterlimit: 4; fill: rgb(244,102,88); fill-rule: nonzero; opacity: 1;"  transform=" translate(-211.89, -128.91)" d="m 347.7 66.9 c -27.5 -26.9 -55.5 -24.8 -55.5 -24.8 h -64.5 h -31.6 h -64.6 c 0 0 -27.9 -2.1 -55.5 24.8 c -27.5 27 -25.6 75.1 -14.6 99.8 c 11.1 24.7 35.7 51.4 93.2 48.9 h 25.8 h 63 h 25.7 c 57.6 2.5 82.1 -24.2 93.2 -48.9 c 11.1 -24.7 13 -72.8 -14.6 -99.8 z" stroke-linecap="round" />
</g>
		<g transform="matrix(1 0 0 1 -6.15 -0.05)"  >
<path style="stroke: none; stroke-width: 1; stroke-dasharray: none; stroke-linecap: butt; stroke-dashoffset: 0; stroke-linejoin: miter; stroke-miterlimit: 4; fill: rgb(218,220,221); fill-rule: nonzero; opacity: 1;"  transform=" translate(-211.85, -128.95)" d="m 276.5 216.8 q 0 0 0 0 c -2.4 0 -4.9 -0.1 -7.4 -0.2 h -114.5 c -2.4 0.1 -4.9 0.2 -7.3 0.2 c -42.8 0 -72 -16.7 -86.8 -49.7 c -6 -13.5 -8.8 -32 -7.3 -49.5 c 1.3 -14.9 6.2 -35.8 22.1 -51.4 c 23.9 -23.3 47.9 -25.1 54.8 -25.1 c 1 0 1.5 0 1.5 0 h 160.6 c 0 0 0.6 0 1.5 0 c 6.8 0 30.9 1.8 54.7 25.1 c 16 15.6 20.8 36.5 22.1 51.4 c 1.5 17.5 -1.2 36 -7.3 49.5 c -14.7 33 -43.9 49.7 -86.7 49.7 z m -96.1 -2.2 h 88.7 q 3.8 0.2 7.4 0.2 q 0 0 0 0 c 41.9 0 70.5 -16.3 84.9 -48.5 c 5.9 -13.2 8.6 -31.4 7.1 -48.6 c -1.2 -14.5 -6 -34.9 -21.5 -50.1 c -23.3 -22.8 -46.7 -24.5 -53.3 -24.5 c -0.9 0 -1.4 0 -1.4 0 h -160.8 c -0.1 0 -0.6 0 -1.4 0 c -6.7 0 -30.1 1.7 -53.4 24.5 c -15.5 15.2 -20.2 35.6 -21.5 50.1 c -1.4 17.2 1.2 35.4 7.1 48.6 c 14.5 32.2 43 48.5 85 48.5 c 2.3 0 4.8 -0.1 7.3 -0.2 z" stroke-linecap="round" />
</g>
		<g transform="matrix(1 0 0 1 -6.1 -0.1)"  >
<path style="stroke: none; stroke-width: 1; stroke-dasharray: none; stroke-linecap: butt; stroke-dashoffset: 0; stroke-linejoin: miter; stroke-miterlimit: 4; fill: rgb(244,102,88); fill-rule: nonzero; opacity: 1;"  transform=" translate(-211.9, -128.9)" d="m 336.8 74.1 c -25.4 -23.9 -51.1 -22 -51.1 -22 h -59.3 h -29 h -59.4 c 0 0 -25.7 -1.9 -51 22 c -25.3 23.8 -23.6 66.4 -13.4 88.3 c 10.2 21.8 32.8 45.4 85.7 43.2 h 23.6 h 57.9 h 23.7 c 52.9 2.2 75.5 -21.4 85.7 -43.2 c 10.2 -21.9 11.9 -64.5 -13.4 -88.3 z" stroke-linecap="round" />
</g>
		<g transform="matrix(1 0 0 1 -6.1 -0.05)"  >
<path style="stroke: none; stroke-width: 1; stroke-dasharray: none; stroke-linecap: butt; stroke-dashoffset: 0; stroke-linejoin: miter; stroke-miterlimit: 4; fill: rgb(218,220,221); fill-rule: nonzero; opacity: 1;"  transform=" translate(-211.9, -128.95)" d="m 271.3 206.8 q 0 0 0 0 c -2.2 0 -4.5 -0.1 -6.8 -0.2 h -105.2 c -2.3 0.1 -4.6 0.2 -6.8 0.2 c -39.4 0 -66.2 -14.8 -79.8 -44 c -5.6 -12 -8.1 -28.4 -6.7 -43.9 c 1.1 -13.2 5.6 -31.7 20.3 -45.6 c 22 -20.6 44.1 -22.2 50.4 -22.2 c 0.9 0 1.4 0 1.4 0 h 147.6 c 0 0 0.5 0 1.4 0 c 6.3 0 28.4 1.6 50.4 22.2 c 14.6 13.8 19.1 32.4 20.3 45.6 c 1.4 15.5 -1.1 31.9 -6.7 43.9 c -13.6 29.2 -40.5 44 -79.8 44 z m -88.4 -2.2 h 81.6 q 3.5 0.2 6.8 0.2 c 38.5 0 64.7 -14.4 78 -42.9 c 5.4 -11.6 7.8 -27.7 6.5 -42.9 c -1.2 -12.8 -5.5 -30.8 -19.7 -44.2 c -21.4 -20.2 -42.9 -21.7 -49 -21.7 c -0.8 0 -1.3 0 -1.3 0 h -147.8 q -0.1 0 -1.3 0 c -6.1 0 -27.6 1.5 -49 21.7 c -14.2 13.4 -18.6 31.4 -19.7 44.2 c -1.4 15.2 1 31.3 6.5 42.9 c 13.2 28.5 39.5 42.9 78 42.9 q 3.3 0 6.7 -0.2 z" stroke-linecap="round" />
</g>
		<g transform="matrix(1 0 0 1 -6.13 -0.05)"  >
<path style="stroke: none; stroke-width: 1; stroke-dasharray: none; stroke-linecap: butt; stroke-dashoffset: 0; stroke-linejoin: miter; stroke-miterlimit: 4; fill: rgb(189,191,194); fill-rule: nonzero; opacity: 1;"  transform=" translate(-211.87, -128.94)" d="m 323.3 81.4 c -22.6 -20.7 -45.5 -19 -45.5 -19 h -53 h -25.9 h -52.9 c 0 0 -23 -1.7 -45.6 19 c -22.6 20.6 -21 57.6 -12 76.5 c 9.1 18.9 29.3 39.4 76.5 37.5 h 21.1 h 51.7 h 21.2 c 47.2 1.9 67.3 -18.6 76.4 -37.5 c 9.1 -18.9 10.6 -55.9 -12 -76.5 z" stroke-linecap="round" />
</g>
		<g transform="matrix(1 0 0 1 -6.12 -0.1)"  >
<path style="stroke: none; stroke-width: 1; stroke-dasharray: none; stroke-linecap: butt; stroke-dashoffset: 0; stroke-linejoin: miter; stroke-miterlimit: 4; fill: rgb(218,220,221); fill-rule: nonzero; opacity: 1;"  transform=" translate(-211.88, -128.9)" d="m 264.9 196.5 q 0 0 0 0 q -3 0 -6.1 -0.1 h -93.9 c -2 0.1 -4 0.1 -6 0.1 c -35.2 0 -59.2 -12.9 -71.4 -38.2 c -4.9 -10.4 -7.2 -24.6 -5.9 -38.1 c 1 -11.4 5 -27.5 18.1 -39.5 c 19.7 -18 39.4 -19.4 45 -19.4 c 0.9 0 1.3 0.1 1.3 0.1 h 131.8 c 0 0 0.4 -0.1 1.2 -0.1 c 5.6 0 25.4 1.4 45 19.4 c 13.1 12 17.2 28.1 18.2 39.5 c 1.2 13.5 -1 27.7 -6 38.1 c -12.1 25.3 -36.1 38.2 -71.3 38.2 z m -78.9 -2.1 h 72.9 q 3 0.1 6 0.1 c 34.3 0 57.7 -12.5 69.5 -37 c 4.8 -10.1 7 -24 5.8 -37.1 c -1 -11.1 -4.9 -26.7 -17.5 -38.3 c -19.1 -17.4 -38.3 -18.8 -43.7 -18.8 c -0.7 0 -1.1 0.1 -1.1 0.1 h -131.9 q -0.2 -0.1 -1.3 -0.1 c -5.4 0 -24.5 1.4 -43.6 18.8 c -12.7 11.6 -16.5 27.2 -17.6 38.3 c -1.2 13.1 1 27 5.8 37.1 c 12.5 25.9 38 38.4 75.6 36.9 z" stroke-linecap="round" />
</g>
		<g transform="matrix(1 0 0 1 -6.65 -0.06)"  >
<path style="stroke: none; stroke-width: 1; stroke-dasharray: none; stroke-linecap: butt; stroke-dashoffset: 0; stroke-linejoin: miter; stroke-miterlimit: 4; fill: rgb(89,158,81); fill-rule: nonzero; opacity: 1;"  transform=" translate(-211.35, -128.95)" d="m 317.3 85 c -21.5 -19.1 -43.3 -17.6 -43.3 -17.6 h -50.3 h -24.7 h -50.3 c 0 0 -21.8 -1.5 -43.3 17.6 c -21.5 19.1 -20 53.3 -11.4 70.8 c 8.6 17.5 27.8 36.4 72.7 34.6 h 20.1 h 49.1 h 20.1 c 44.9 1.8 64.1 -17.1 72.7 -34.6 c 8.6 -17.5 10.1 -51.7 -11.4 -70.8 z" stroke-linecap="round" />
</g>
		<g transform="matrix(1 0 0 1 -6.87 0.09)"  >
<path style="stroke: none; stroke-width: 1; stroke-dasharray: none; stroke-linecap: butt; stroke-dashoffset: 0; stroke-linejoin: miter; stroke-miterlimit: 4; fill: rgb(171,193,70); fill-rule: nonzero; opacity: 1;"  transform=" translate(-211.12, -129.09)" d="m 314.9 87.1 c -21.1 -18.3 -42.4 -16.8 -42.4 -16.8 h -49.3 h -24.1 h -49.3 c 0 0 -21.4 -1.5 -42.4 16.8 c -21.1 18.2 -19.6 50.8 -11.2 67.6 c 8.5 16.7 27.3 34.8 71.2 33.1 h 19.7 h 48.1 h 19.6 c 44 1.7 62.7 -16.4 71.2 -33.1 c 8.5 -16.8 9.9 -49.4 -11.1 -67.6 z" stroke-linecap="round" />
</g>
		<g transform="matrix(1 0 0 1 14.55 111.5)"  >
<path style="stroke: none; stroke-width: 1; stroke-dasharray: none; stroke-linecap: butt; stroke-dashoffset: 0; stroke-linejoin: miter; stroke-miterlimit: 4; fill: rgb(218,220,221); fill-rule: nonzero; opacity: 1;"  transform=" translate(-232.55, -240.5)" d="m 233.5 236 v 9 h -1.9 v -9 z" stroke-linecap="round" />
</g>
		<g transform="matrix(1 0 0 1 23.4 102.5)"  >
<path style="stroke: none; stroke-width: 1; stroke-dasharray: none; stroke-linecap: butt; stroke-dashoffset: 0; stroke-linejoin: miter; stroke-miterlimit: 4; fill: rgb(218,220,221); fill-rule: nonzero; opacity: 1;"  transform=" translate(-241.4, -231.5)" d="m 242.5 225 v 13 h -2.2 v -13 z" stroke-linecap="round" />
</g>
		<g transform="matrix(1 0 0 1 32.25 91.5)"  >
<path style="stroke: none; stroke-width: 1; stroke-dasharray: none; stroke-linecap: butt; stroke-dashoffset: 0; stroke-linejoin: miter; stroke-miterlimit: 4; fill: rgb(218,220,221); fill-rule: nonzero; opacity: 1;"  transform=" translate(-250.25, -220.5)" d="m 251.2 215 v 11 h -1.9 v -11 z" stroke-linecap="round" />
</g>
		<g transform="matrix(1 0 0 1 41.1 81.5)"  >
<path style="stroke: none; stroke-width: 1; stroke-dasharray: none; stroke-linecap: butt; stroke-dashoffset: 0; stroke-linejoin: miter; stroke-miterlimit: 4; fill: rgb(218,220,221); fill-rule: nonzero; opacity: 1;"  transform=" translate(-259.1, -210.5)" d="m 260 205 v 11 h -1.8 v -11 z" stroke-linecap="round" />
</g>
		<g transform="matrix(1 0 0 1 50 71.5)"  >
<path style="stroke: none; stroke-width: 1; stroke-dasharray: none; stroke-linecap: butt; stroke-dashoffset: 0; stroke-linejoin: miter; stroke-miterlimit: 4; fill: rgb(218,220,221); fill-rule: nonzero; opacity: 1;"  transform=" translate(-268, -200.5)" d="m 268.9 195 v 11 h -1.8 v -11 z" stroke-linecap="round" />
</g>
		<g transform="matrix(1 0 0 1 54.55 91.8)"  >
<path style="stroke: none; stroke-width: 1; stroke-dasharray: none; stroke-linecap: butt; stroke-dashoffset: 0; stroke-linejoin: miter; stroke-miterlimit: 4; fill: rgb(218,220,221); fill-rule: nonzero; opacity: 1;"  transform=" translate(-272.55, -220.8)" d="m 388.2 195.6 c -19.5 32.1 -51.9 48.4 -96.6 48.4 q -4.4 0 -9.1 -0.3 h -128 v 2 h 128 c 3.1 0.2 6.1 0.3 9.1 0.3 q 0 0 0 0 c 46 0 79.2 -17 99 -50.4 z" stroke-linecap="round" />
</g>
		<g transform="matrix(1 0 0 1 47.3 87.95)"  >
<path style="stroke: none; stroke-width: 1; stroke-dasharray: none; stroke-linecap: butt; stroke-dashoffset: 0; stroke-linejoin: miter; stroke-miterlimit: 4; fill: rgb(218,220,221); fill-rule: nonzero; opacity: 1;"  transform=" translate(-265.3, -216.95)" d="m 373.6 195.6 c -18.4 27 -47.7 40.7 -87.3 40.7 q -4.1 0 -8.4 -0.2 h -102.3 h -21.1 v 2 h 123.3 c 2.9 0.1 5.8 0.2 8.5 0.2 c 40.9 0 71 -14.4 89.8 -42.7 z" stroke-linecap="round" />
</g>
		<g transform="matrix(1 0 0 1 39.7 82.2)"  >
<path style="stroke: none; stroke-width: 1; stroke-dasharray: none; stroke-linecap: butt; stroke-dashoffset: 0; stroke-linejoin: miter; stroke-miterlimit: 4; fill: rgb(218,220,221); fill-rule: nonzero; opacity: 1;"  transform=" translate(-257.7, -211.2)" d="m 358.2 195.6 c -17.4 19.4 -42.9 29.2 -76.3 29.2 q -3.9 0 -8 -0.2 h -96.1 h -23.3 v 2 h 119.4 c 2.7 0.1 5.4 0.2 8 0.2 q 0 0 0 0 c 34.8 0 61.2 -10.5 79 -31.2 z" stroke-linecap="round" />
</g>
		<g transform="matrix(1 0 0 1 30.55 77.2)"  >
<path style="stroke: none; stroke-width: 1; stroke-dasharray: none; stroke-linecap: butt; stroke-dashoffset: 0; stroke-linejoin: miter; stroke-miterlimit: 4; fill: rgb(218,220,221); fill-rule: nonzero; opacity: 1;"  transform=" translate(-248.55, -206.2)" d="m 339.4 195.6 c -15.6 12.7 -36.6 19.2 -62.9 19.2 q -3.6 0 -7.4 -0.2 h -88.7 h -25.8 q -0.1 0 -0.1 0 v 2 q 0.1 0 0.1 0 h 114.5 c 2.5 0.1 5 0.2 7.4 0.2 q 0 0 0 0 c 27.9 0 49.9 -7.1 66.1 -21.2 z" stroke-linecap="round" />
</g>
		<g transform="matrix(1 0 0 1 19.75 72.2)"  >
<path style="stroke: none; stroke-width: 1; stroke-dasharray: none; stroke-linecap: butt; stroke-dashoffset: 0; stroke-linejoin: miter; stroke-miterlimit: 4; fill: rgb(218,220,221); fill-rule: nonzero; opacity: 1;"  transform=" translate(-237.75, -201.2)" d="m 316.9 195.6 q -0.1 0 -0.2 0 c -12.5 6.1 -27.6 9.2 -45.4 9.2 q -3.3 0 -6.8 -0.2 h -81.6 h -23.7 q -2.4 0.1 -4.7 0.1 v 2 q 2.4 0 4.8 -0.1 h 105.2 c 2.3 0.1 4.6 0.2 6.8 0.2 q 0 0 0 0 c 19.7 0 36.3 -3.8 49.7 -11.2 z" stroke-linecap="round" />
</g>
		<g transform="matrix(1 0 0 1 145.75 -6.35)"  >
<path style="stroke: none; stroke-width: 1; stroke-dasharray: none; stroke-linecap: butt; stroke-dashoffset: 0; stroke-linejoin: miter; stroke-miterlimit: 4; fill: rgb(47,41,43); fill-rule: nonzero; opacity: 1;"  transform=" translate(-363.75, -122.65)" d="m 366.4 124.2 v -3.1 h -5.3 v 3.1 z" stroke-linecap="round" />
</g>
		<g transform="matrix(1 0 0 1 177.3 -6.35)"  >
<path style="stroke: none; stroke-width: 1; stroke-dasharray: none; stroke-linecap: butt; stroke-dashoffset: 0; stroke-linejoin: miter; stroke-miterlimit: 4; fill: rgb(47,41,43); fill-rule: nonzero; opacity: 1;"  transform=" translate(-395.3, -122.65)" d="m 397.9 124.2 v -3.1 h -5.2 v 3.1 z" stroke-linecap="round" />
</g>
		<g transform="matrix(1 0 0 1 182.55 -6.35)"  >
<path style="stroke: none; stroke-width: 1; stroke-dasharray: none; stroke-linecap: butt; stroke-dashoffset: 0; stroke-linejoin: miter; stroke-miterlimit: 4; fill: rgb(255,255,255); fill-rule: nonzero; opacity: 1;"  transform=" translate(-400.55, -122.65)" d="m 403.2 124.2 v -3.1 h -5.3 v 3.1 z" stroke-linecap="round" />
</g>
		<g transform="matrix(1 0 0 1 182.55 -2.9)"  >
<path style="stroke: none; stroke-width: 1; stroke-dasharray: none; stroke-linecap: butt; stroke-dashoffset: 0; stroke-linejoin: miter; stroke-miterlimit: 4; fill: rgb(47,41,43); fill-rule: nonzero; opacity: 1;"  transform=" translate(-400.55, -126.1)" d="m 397.9 128 h 5.3 v -3.8 h -5.3 z" stroke-linecap="round" />
</g>
		<g transform="matrix(1 0 0 1 156.25 -6.35)"  >
<path style="stroke: none; stroke-width: 1; stroke-dasharray: none; stroke-linecap: butt; stroke-dashoffset: 0; stroke-linejoin: miter; stroke-miterlimit: 4; fill: rgb(47,41,43); fill-rule: nonzero; opacity: 1;"  transform=" translate(-374.25, -122.65)" d="m 376.9 124.2 v -3.1 h -5.3 v 3.1 z" stroke-linecap="round" />
</g>
		<g transform="matrix(1 0 0 1 172.05 -2.9)"  >
<path style="stroke: none; stroke-width: 1; stroke-dasharray: none; stroke-linecap: butt; stroke-dashoffset: 0; stroke-linejoin: miter; stroke-miterlimit: 4; fill: rgb(47,41,43); fill-rule: nonzero; opacity: 1;"  transform=" translate(-390.05, -126.1)" d="m 387.4 124.2 v 3.8 h 5.3 v -3.8 z" stroke-linecap="round" />
</g>
		<g transform="matrix(1 0 0 1 151 -6.35)"  >
<path style="stroke: none; stroke-width: 1; stroke-dasharray: none; stroke-linecap: butt; stroke-dashoffset: 0; stroke-linejoin: miter; stroke-miterlimit: 4; fill: rgb(255,255,255); fill-rule: nonzero; opacity: 1;"  transform=" translate(-369, -122.65)" d="m 371.6 124.2 v -3.1 h -5.2 v 3.1 z" stroke-linecap="round" />
</g>
		<g transform="matrix(1 0 0 1 161.5 -6.35)"  >
<path style="stroke: none; stroke-width: 1; stroke-dasharray: none; stroke-linecap: butt; stroke-dashoffset: 0; stroke-linejoin: miter; stroke-miterlimit: 4; fill: rgb(255,255,255); fill-rule: nonzero; opacity: 1;"  transform=" translate(-379.5, -122.65)" d="m 382.1 124.2 v -3.1 h -5.2 v 3.1 z" stroke-linecap="round" />
</g>
		<g transform="matrix(1 0 0 1 166.75 -6.35)"  >
<path style="stroke: none; stroke-width: 1; stroke-dasharray: none; stroke-linecap: butt; stroke-dashoffset: 0; stroke-linejoin: miter; stroke-miterlimit: 4; fill: rgb(47,41,43); fill-rule: nonzero; opacity: 1;"  transform=" translate(-384.75, -122.65)" d="m 387.4 124.2 v -3.1 h -5.3 v 3.1 z" stroke-linecap="round" />
</g>
		<g transform="matrix(1 0 0 1 172.05 -6.35)"  >
<path style="stroke: none; stroke-width: 1; stroke-dasharray: none; stroke-linecap: butt; stroke-dashoffset: 0; stroke-linejoin: miter; stroke-miterlimit: 4; fill: rgb(255,255,255); fill-rule: nonzero; opacity: 1;"  transform=" translate(-390.05, -122.65)" d="m 392.7 124.2 v -3.1 h -5.3 v 3.1 z" stroke-linecap="round" />
</g>
		<g transform="matrix(1 0 0 1 130 -2.9)"  >
<path style="stroke: none; stroke-width: 1; stroke-dasharray: none; stroke-linecap: butt; stroke-dashoffset: 0; stroke-linejoin: miter; stroke-miterlimit: 4; fill: rgb(47,41,43); fill-rule: nonzero; opacity: 1;"  transform=" translate(-348, -126.1)" d="m 345.4 124.2 v 3.8 h 5.2 v -3.8 z" stroke-linecap="round" />
</g>
		<g transform="matrix(1 0 0 1 140.5 -2.9)"  >
<path style="stroke: none; stroke-width: 1; stroke-dasharray: none; stroke-linecap: butt; stroke-dashoffset: 0; stroke-linejoin: miter; stroke-miterlimit: 4; fill: rgb(47,41,43); fill-rule: nonzero; opacity: 1;"  transform=" translate(-358.5, -126.1)" d="m 355.9 124.2 v 3.8 h 5.2 v -3.8 z" stroke-linecap="round" />
</g>
		<g transform="matrix(1 0 0 1 135.25 -2.9)"  >
<path style="stroke: none; stroke-width: 1; stroke-dasharray: none; stroke-linecap: butt; stroke-dashoffset: 0; stroke-linejoin: miter; stroke-miterlimit: 4; fill: rgb(255,255,255); fill-rule: nonzero; opacity: 1;"  transform=" translate(-353.25, -126.1)" d="m 350.6 124.2 v 3.8 h 5.3 v -3.8 z" stroke-linecap="round" />
</g>
		<g transform="matrix(1 0 0 1 187 -6.35)"  >
<path style="stroke: none; stroke-width: 1; stroke-dasharray: none; stroke-linecap: butt; stroke-dashoffset: 0; stroke-linejoin: miter; stroke-miterlimit: 4; fill: rgb(47,41,43); fill-rule: nonzero; opacity: 1;"  transform=" translate(-405, -122.65)" d="m 406.8 124.2 v -3.1 h -3.6 v 3.1 z" stroke-linecap="round" />
</g>
		<g transform="matrix(1 0 0 1 151 -2.9)"  >
<path style="stroke: none; stroke-width: 1; stroke-dasharray: none; stroke-linecap: butt; stroke-dashoffset: 0; stroke-linejoin: miter; stroke-miterlimit: 4; fill: rgb(47,41,43); fill-rule: nonzero; opacity: 1;"  transform=" translate(-369, -126.1)" d="m 366.4 124.2 v 3.8 h 5.2 v -3.8 z" stroke-linecap="round" />
</g>
		<g transform="matrix(1 0 0 1 161.5 -2.9)"  >
<path style="stroke: none; stroke-width: 1; stroke-dasharray: none; stroke-linecap: butt; stroke-dashoffset: 0; stroke-linejoin: miter; stroke-miterlimit: 4; fill: rgb(47,41,43); fill-rule: nonzero; opacity: 1;"  transform=" translate(-379.5, -126.1)" d="m 376.9 124.2 v 3.8 h 5.2 v -3.8 z" stroke-linecap="round" />
</g>
		<g transform="matrix(1 0 0 1 156.25 -2.9)"  >
<path style="stroke: none; stroke-width: 1; stroke-dasharray: none; stroke-linecap: butt; stroke-dashoffset: 0; stroke-linejoin: miter; stroke-miterlimit: 4; fill: rgb(255,255,255); fill-rule: nonzero; opacity: 1;"  transform=" translate(-374.25, -126.1)" d="m 371.6 124.2 v 3.8 h 5.3 v -3.8 z" stroke-linecap="round" />
</g>
		<g transform="matrix(1 0 0 1 145.75 -2.9)"  >
<path style="stroke: none; stroke-width: 1; stroke-dasharray: none; stroke-linecap: butt; stroke-dashoffset: 0; stroke-linejoin: miter; stroke-miterlimit: 4; fill: rgb(255,255,255); fill-rule: nonzero; opacity: 1;"  transform=" translate(-363.75, -126.1)" d="m 361.1 124.2 v 3.8 h 5.3 v -3.8 z" stroke-linecap="round" />
</g>
		<g transform="matrix(1 0 0 1 166.75 -2.9)"  >
<path style="stroke: none; stroke-width: 1; stroke-dasharray: none; stroke-linecap: butt; stroke-dashoffset: 0; stroke-linejoin: miter; stroke-miterlimit: 4; fill: rgb(255,255,255); fill-rule: nonzero; opacity: 1;"  transform=" translate(-384.75, -126.1)" d="m 382.1 124.2 v 3.8 h 5.3 v -3.8 z" stroke-linecap="round" />
</g>
		<g transform="matrix(1 0 0 1 177.3 -2.9)"  >
<path style="stroke: none; stroke-width: 1; stroke-dasharray: none; stroke-linecap: butt; stroke-dashoffset: 0; stroke-linejoin: miter; stroke-miterlimit: 4; fill: rgb(255,255,255); fill-rule: nonzero; opacity: 1;"  transform=" translate(-395.3, -126.1)" d="m 392.7 124.2 v 3.8 h 5.2 v -3.8 z" stroke-linecap="round" />
</g>
		<g transform="matrix(1 0 0 1 172.05 0.9)"  >
<path style="stroke: none; stroke-width: 1; stroke-dasharray: none; stroke-linecap: butt; stroke-dashoffset: 0; stroke-linejoin: miter; stroke-miterlimit: 4; fill: rgb(255,255,255); fill-rule: nonzero; opacity: 1;"  transform=" translate(-390.05, -129.9)" d="m 387.4 128 v 3.8 h 5.3 v -3.8 z" stroke-linecap="round" />
</g>
		<g transform="matrix(1 0 0 1 161.5 0.9)"  >
<path style="stroke: none; stroke-width: 1; stroke-dasharray: none; stroke-linecap: butt; stroke-dashoffset: 0; stroke-linejoin: miter; stroke-miterlimit: 4; fill: rgb(255,255,255); fill-rule: nonzero; opacity: 1;"  transform=" translate(-379.5, -129.9)" d="m 376.9 128 v 3.8 h 5.2 v -3.8 z" stroke-linecap="round" />
</g>
		<g transform="matrix(1 0 0 1 140.5 -6.35)"  >
<path style="stroke: none; stroke-width: 1; stroke-dasharray: none; stroke-linecap: butt; stroke-dashoffset: 0; stroke-linejoin: miter; stroke-miterlimit: 4; fill: rgb(255,255,255); fill-rule: nonzero; opacity: 1;"  transform=" translate(-358.5, -122.65)" d="m 361.1 124.2 v -3.1 h -5.2 v 3.1 z" stroke-linecap="round" />
</g>
		<g transform="matrix(1 0 0 1 156.25 0.9)"  >
<path style="stroke: none; stroke-width: 1; stroke-dasharray: none; stroke-linecap: butt; stroke-dashoffset: 0; stroke-linejoin: miter; stroke-miterlimit: 4; fill: rgb(47,41,43); fill-rule: nonzero; opacity: 1;"  transform=" translate(-374.25, -129.9)" d="m 371.6 128 v 3.8 h 5.3 v -3.8 z" stroke-linecap="round" />
</g>
		<g transform="matrix(1 0 0 1 151 0.9)"  >
<path style="stroke: none; stroke-width: 1; stroke-dasharray: none; stroke-linecap: butt; stroke-dashoffset: 0; stroke-linejoin: miter; stroke-miterlimit: 4; fill: rgb(255,255,255); fill-rule: nonzero; opacity: 1;"  transform=" translate(-369, -129.9)" d="m 366.4 128 v 3.8 h 5.2 v -3.8 z" stroke-linecap="round" />
</g>
		<g transform="matrix(1 0 0 1 177.3 0.9)"  >
<path style="stroke: none; stroke-width: 1; stroke-dasharray: none; stroke-linecap: butt; stroke-dashoffset: 0; stroke-linejoin: miter; stroke-miterlimit: 4; fill: rgb(47,41,43); fill-rule: nonzero; opacity: 1;"  transform=" translate(-395.3, -129.9)" d="m 392.7 128 v 3.8 h 5.2 v -3.8 z" stroke-linecap="round" />
</g>
		<g transform="matrix(1 0 0 1 187 -2.9)"  >
<path style="stroke: none; stroke-width: 1; stroke-dasharray: none; stroke-linecap: butt; stroke-dashoffset: 0; stroke-linejoin: miter; stroke-miterlimit: 4; fill: rgb(255,255,255); fill-rule: nonzero; opacity: 1;"  transform=" translate(-405, -126.1)" d="m 403.2 124.2 v 3.8 h 3.6 v -3.8 z" stroke-linecap="round" />
</g>
		<g transform="matrix(1 0 0 1 187 0.9)"  >
<path style="stroke: none; stroke-width: 1; stroke-dasharray: none; stroke-linecap: butt; stroke-dashoffset: 0; stroke-linejoin: miter; stroke-miterlimit: 4; fill: rgb(47,41,43); fill-rule: nonzero; opacity: 1;"  transform=" translate(-405, -129.9)" d="m 403.2 131.8 h 3.6 v -3.8 h -3.6 z" stroke-linecap="round" />
</g>
		<g transform="matrix(1 0 0 1 182.55 0.9)"  >
<path style="stroke: none; stroke-width: 1; stroke-dasharray: none; stroke-linecap: butt; stroke-dashoffset: 0; stroke-linejoin: miter; stroke-miterlimit: 4; fill: rgb(255,255,255); fill-rule: nonzero; opacity: 1;"  transform=" translate(-400.55, -129.9)" d="m 397.9 128 v 3.8 h 5.3 v -3.8 z" stroke-linecap="round" />
</g>
		<g transform="matrix(1 0 0 1 166.75 0.9)"  >
<path style="stroke: none; stroke-width: 1; stroke-dasharray: none; stroke-linecap: butt; stroke-dashoffset: 0; stroke-linejoin: miter; stroke-miterlimit: 4; fill: rgb(47,41,43); fill-rule: nonzero; opacity: 1;"  transform=" translate(-384.75, -129.9)" d="m 382.1 128 v 3.8 h 5.3 v -3.8 z" stroke-linecap="round" />
</g>
		<g transform="matrix(1 0 0 1 125.25 -6.35)"  >
<path style="stroke: none; stroke-width: 1; stroke-dasharray: none; stroke-linecap: butt; stroke-dashoffset: 0; stroke-linejoin: miter; stroke-miterlimit: 4; fill: rgb(47,41,43); fill-rule: nonzero; opacity: 1;"  transform=" translate(-343.25, -122.65)" d="m 345.4 121.1 h -4.3 v 3.1 h 4.3 z" stroke-linecap="round" />
</g>
		<g transform="matrix(1 0 0 1 130 -6.35)"  >
<path style="stroke: none; stroke-width: 1; stroke-dasharray: none; stroke-linecap: butt; stroke-dashoffset: 0; stroke-linejoin: miter; stroke-miterlimit: 4; fill: rgb(255,255,255); fill-rule: nonzero; opacity: 1;"  transform=" translate(-348, -122.65)" d="m 350.6 124.2 v -3.1 h -5.2 v 3.1 z" stroke-linecap="round" />
</g>
		<g transform="matrix(1 0 0 1 135.25 -6.35)"  >
<path style="stroke: none; stroke-width: 1; stroke-dasharray: none; stroke-linecap: butt; stroke-dashoffset: 0; stroke-linejoin: miter; stroke-miterlimit: 4; fill: rgb(47,41,43); fill-rule: nonzero; opacity: 1;"  transform=" translate(-353.25, -122.65)" d="m 355.9 124.2 v -3.1 h -5.3 v 3.1 z" stroke-linecap="round" />
</g>
		<g transform="matrix(1 0 0 1 125.25 -2.9)"  >
<path style="stroke: none; stroke-width: 1; stroke-dasharray: none; stroke-linecap: butt; stroke-dashoffset: 0; stroke-linejoin: miter; stroke-miterlimit: 4; fill: rgb(255,255,255); fill-rule: nonzero; opacity: 1;"  transform=" translate(-343.25, -126.1)" d="m 345.4 124.2 h -4.3 v 3.8 h 4.3 z" stroke-linecap="round" />
</g>
		<g transform="matrix(1 0 0 1 125.25 0.9)"  >
<path style="stroke: none; stroke-width: 1; stroke-dasharray: none; stroke-linecap: butt; stroke-dashoffset: 0; stroke-linejoin: miter; stroke-miterlimit: 4; fill: rgb(47,41,43); fill-rule: nonzero; opacity: 1;"  transform=" translate(-343.25, -129.9)" d="m 341.1 128 v 3.8 h 4.3 v -3.8 z" stroke-linecap="round" />
</g>
		<g transform="matrix(1 0 0 1 145.75 0.9)"  >
<path style="stroke: none; stroke-width: 1; stroke-dasharray: none; stroke-linecap: butt; stroke-dashoffset: 0; stroke-linejoin: miter; stroke-miterlimit: 4; fill: rgb(47,41,43); fill-rule: nonzero; opacity: 1;"  transform=" translate(-363.75, -129.9)" d="m 361.1 128 v 3.8 h 5.3 v -3.8 z" stroke-linecap="round" />
</g>
		<g transform="matrix(1 0 0 1 140.5 0.9)"  >
<path style="stroke: none; stroke-width: 1; stroke-dasharray: none; stroke-linecap: butt; stroke-dashoffset: 0; stroke-linejoin: miter; stroke-miterlimit: 4; fill: rgb(255,255,255); fill-rule: nonzero; opacity: 1;"  transform=" translate(-358.5, -129.9)" d="m 355.9 128 v 3.8 h 5.2 v -3.8 z" stroke-linecap="round" />
</g>
		<g transform="matrix(1 0 0 1 135.25 0.9)"  >
<path style="stroke: none; stroke-width: 1; stroke-dasharray: none; stroke-linecap: butt; stroke-dashoffset: 0; stroke-linejoin: miter; stroke-miterlimit: 4; fill: rgb(47,41,43); fill-rule: nonzero; opacity: 1;"  transform=" translate(-353.25, -129.9)" d="m 350.6 128 v 3.8 h 5.3 v -3.8 z" stroke-linecap="round" />
</g>
		<g transform="matrix(1 0 0 1 130 0.9)"  >
<path style="stroke: none; stroke-width: 1; stroke-dasharray: none; stroke-linecap: butt; stroke-dashoffset: 0; stroke-linejoin: miter; stroke-miterlimit: 4; fill: rgb(255,255,255); fill-rule: nonzero; opacity: 1;"  transform=" translate(-348, -129.9)" d="m 345.4 128 v 3.8 h 5.2 v -3.8 z" stroke-linecap="round" />
</g>
</g>
</g>
</svg>