<svg xmlns="http://www.w3.org/2000/svg" width="800" height="520" viewBox="0 0 800 520">
  <g transform="matrix(1 0 0 1 396.83 103.83)">
    <path class="lane" d="M -370.5 1 L 370.5 -1" stroke="red" stroke-width="2" fill="none" />
  </g>
  <g transform="matrix(1 0 0 1 396.5 257.83)">
    <path class="lane" d="M -370.5 1 L 370.5 -1" stroke="red" stroke-width="2" fill="none" />
  </g>
  <g transform="matrix(1 0 0 1 397.5 155.83)">
    <path class="lane" d="M -370.5 1 L 370.5 -1" stroke="red" stroke-width="2" fill="none" />
  </g>
  <g transform="matrix(1 0 0 1 396.5 307.5)">
    <path class="lane" d="M -370.5 1 L 370.5 -1" stroke="red" stroke-width="2" fill="none" />
  </g>
  <g transform="matrix(1 0 0 1 396.5 359.5)">
    <path class="lane" d="M -370.5 1 L 370.5 -1" stroke="red" stroke-width="2" fill="none" />
  </g>
  <g transform="matrix(1 0 0 1 396.5 406.5)">
    <path class="lane" d="M -370.5 1 L 370.5 -1" stroke="red" stroke-width="2" fill="none" />
  </g>
  <g transform="matrix(1 0 0 1 396.5 467.5)">
    <path class="lane" d="M -370.5 1 L 370.5 -1" stroke="red" stroke-width="2" fill="none" />
  </g>
  <g transform="matrix(1 0 0 1 396.83 207.5)">
    <path class="lane" d="M -370.5 1 L 370.5 -1" stroke="red" stroke-width="2" fill="none" />
  </g>
  <g transform="matrix(1 0 0 1 396.5 48.83)">
    <path class="lane" d="M -370.5 1 L 370.5 -1" stroke="red" stroke-width="2" fill="none" />
  </g>
</svg>
